<?xml version="1.0" encoding="UTF-8"?>
<svg xmlns="http://www.w3.org/2000/svg" onmouseup="{ if(window.parent.document.onmouseup) window.parent.document.onmouseup(arguments[0]);}" viewBox="0 0 36 36" height="128" width="128" xmlns:xlink="http://www.w3.org/1999/xlink"><defs><circle data-cppathid="10000" r="16" cy="18" cx="18" id="user-b"/><filter filterUnits="objectBoundingBox" y="-9.4%" x="-9.4%" height="118.8%" width="118.8%" id="user-a"><feOffset result="shadowOffsetOuter1" in="SourceAlpha"/><feGaussianBlur stdDeviation="1" result="shadowBlurOuter1" in="shadowOffsetOuter1"/><feComposite result="shadowBlurOuter1" operator="out" in2="SourceAlpha" in="shadowBlurOuter1"/><feColorMatrix values="0 0 0 0 0   0 0 0 0 0   0 0 0 0 0  0 0 0 0.5 0" in="shadowBlurOuter1"/></filter></defs><g fill-rule="evenodd" fill="none"><rect data-cppathid="10001" opacity="0" fill="#03FF00" height="128" width="128"/><use xlink:href="#user-b" filter="url(#user-a)" fill="#000"/><circle data-cppathid="10002" stroke-width="2" stroke-linejoin="square" stroke="#FFF" fill="#000" r="15" cy="18" cx="18"/><path data-cppathid="10003" d="M20.163,18.773 L20.163,17.661 C20.1673129,17.4756936 20.2383257,17.2981618 20.363,17.161 C21.2102436,16.1276265 21.6797504,14.8362184 21.694,13.5 C21.694,10.727 20.223,9.177 18.001,9.177 C15.779,9.177 14.265,10.788 14.265,13.5 C14.3027906,14.8450317 14.7964334,16.1373179 15.665,17.165 C15.7896743,17.3021618 15.8606871,17.4796936 15.865,17.665 L15.865,18.772 C15.8717731,19.1611164 15.584968,19.4931385 15.199,19.543 C10.734,19.931 10.036,22.986 10.036,24.191 C10.036,24.325 10.052,24.851 10.062,24.983 L25.986,24.983 C25.986,24.983 26,24.324 26,24.191 C26,23.037 25.211,19.991 20.827,19.548 C20.4409783,19.4957627 20.1554186,19.1624664 20.163,18.773 Z" fill-rule="nonzero" fill="#FFF"/></g></svg>