<?xml version="1.0" encoding="UTF-8"?>
<svg xmlns="http://www.w3.org/2000/svg" onmouseup="{ if(window.parent.document.onmouseup) window.parent.document.onmouseup(arguments[0]);}" viewBox="0 0 36 36" height="128" width="128" xmlns:xlink="http://www.w3.org/1999/xlink"><defs><circle data-cppathid="10000" r="16" cy="18" cx="18" id="comment-b"/><filter filterUnits="objectBoundingBox" y="-9.4%" x="-9.4%" height="118.8%" width="118.8%" id="comment-a"><feOffset result="shadowOffsetOuter1" in="SourceAlpha"/><feGaussianBlur stdDeviation="1" result="shadowBlurOuter1" in="shadowOffsetOuter1"/><feComposite result="shadowBlurOuter1" operator="out" in2="SourceAlpha" in="shadowBlurOuter1"/><feColorMatrix values="0 0 0 0 0   0 0 0 0 0   0 0 0 0 0  0 0 0 0.5 0" in="shadowBlurOuter1"/></filter></defs><g fill-rule="evenodd" fill="none"><rect data-cppathid="10001" opacity="0" fill="#03FF00" height="128" width="128"/><use xlink:href="#comment-b" filter="url(#comment-a)" fill="#000"/><circle data-cppathid="10002" stroke-width="2" stroke-linejoin="square" stroke="#FFF" fill="#000" r="15" cy="18" cx="18"/><path data-cppathid="10003" d="M12,12 C10.8954305,12 10,12.8954305 10,14 L10,21 C10,22.1045695 10.8954305,23 12,23 L13,23 L13,27.4 C12.9998188,27.5012544 13.0607314,27.5926192 13.1542684,27.6313922 C13.2478053,27.6701651 13.3554929,27.6486884 13.427,27.577 L18,23 L24,23 C25.1045695,23 26,22.1045695 26,21 L26,14 C26,12.8954305 25.1045695,12 24,12 L12,12 Z" fill-rule="nonzero" fill="#FFF"/></g></svg>