<?xml version="1.0" encoding="UTF-8"?>
<svg xmlns="http://www.w3.org/2000/svg" onmouseup="{ if(window.parent.document.onmouseup) window.parent.document.onmouseup(arguments[0]);}" viewBox="0 0 36 36" height="128" width="128" xmlns:xlink="http://www.w3.org/1999/xlink"><defs><circle data-cppathid="10000" r="16" cy="18" cx="18" id="exit-b"/><filter filterUnits="objectBoundingBox" y="-9.4%" x="-9.4%" height="118.8%" width="118.8%" id="exit-a"><feOffset result="shadowOffsetOuter1" in="SourceAlpha"/><feGaussianBlur stdDeviation="1" result="shadowBlurOuter1" in="shadowOffsetOuter1"/><feComposite result="shadowBlurOuter1" operator="out" in2="SourceAlpha" in="shadowBlurOuter1"/><feColorMatrix values="0 0 0 0 0   0 0 0 0 0   0 0 0 0 0  0 0 0 0.5 0" in="shadowBlurOuter1"/></filter></defs><g fill-rule="evenodd" fill="none"><rect data-cppathid="10001" opacity="0" fill="#03FF00" height="128" width="128"/><use xlink:href="#exit-b" filter="url(#exit-a)" fill="#000"/><circle data-cppathid="10002" stroke-width="2" stroke-linejoin="square" stroke="#FFF" fill="#000" r="15" cy="18" cx="18"/><path data-cppathid="10003" d="M17,19.5 L17,16.5 C17,16.2238576 17.2238576,16 17.5,16 L24,16 L24,11.5 C24,11.2238576 23.7761424,11 23.5,11 L11.5,11 C11.2238576,11 11,11.2238576 11,11.5 L11,24.5 C11,24.7761424 11.2238576,25 11.5,25 L23.5,25 C23.7761424,25 24,24.7761424 24,24.5 L24,20 L17.5,20 C17.2238576,20 17,19.7761424 17,19.5 Z" fill-rule="nonzero" fill="#FFF"/><path data-cppathid="10004" d="M25,14.6 L25,17 L18.25,17 C18.1119288,17 18,17.1119288 18,17.25 L18,18.75 C18,18.8880712 18.1119288,19 18.25,19 L25,19 L25,21.4 C24.9998188,21.5012544 25.0607314,21.5926192 25.1542684,21.6313922 C25.2478053,21.6701651 25.3554929,21.6486884 25.427,21.577 L28.957,18 L25.427,14.427 C25.3560091,14.3558094 25.2492796,14.3340707 25.1560992,14.3718229 C25.0629188,14.4095751 25.0014188,14.4994724 25,14.6 Z" fill-rule="nonzero" fill="#FFF"/></g></svg>